<svg
  xmlns="http://www.w3.org/2000/svg"
  width="48"
  height="32"
  viewBox="0 0 48 32"
>
  <g fill="none">
    <path
      fill="#FFF"
      d="M44 1.333A2.667 2.667 0 0 1 46.667 4v24A2.667 2.667 0 0 1 44 30.667H4A2.667 2.667 0 0 1 1.333 28V4A2.667 2.667 0 0 1 4 1.333z"
    />
    <path
      fill="#1A1F71"
      d="M28.113 24.285H27.03v1.007h1.21v.303h-1.574v-2.793h1.512v.302h-1.148v.883h1.082zm2.082.395c.009.493.32.696.688.696.261 0 .423-.045.556-.103l.066.261a1.6 1.6 0 0 1-.672.128c-.617 0-.986-.41-.986-1.015s.357-1.077.941-1.077c.659 0 .829.572.829.94a1 1 0 0 1-.013.17zm1.07-.261c.004-.228-.096-.588-.506-.588-.373 0-.53.335-.56.588zm2.429 1.127a1.4 1.4 0 0 1-.576.116c-.605 0-.999-.41-.999-1.023 0-.618.423-1.07 1.078-1.07.215 0 .406.054.505.108l-.083.278a.9.9 0 0 0-.422-.096c-.46 0-.709.344-.709.759 0 .464.298.75.696.75.207 0 .344-.05.448-.095zm.91-2.45v.481h.522v.278h-.522v1.082c0 .248.07.39.274.39.099 0 .157-.01.211-.026l.017.278a1 1 0 0 1-.324.05.52.52 0 0 1-.393-.154c-.1-.112-.141-.29-.141-.526v-1.094h-.311v-.278h.31v-.373zm1.167 1.186c0-.236-.004-.439-.017-.626h.32l.016.398h.012c.092-.269.315-.439.56-.439.037 0 .066.004.1.008v.344c-.038-.008-.075-.008-.125-.008-.257 0-.44.19-.489.464a1 1 0 0 0-.012.17v1.07h-.365zm2.08 1.397c-.538 0-.96-.398-.96-1.032 0-.667.443-1.06.994-1.06.576 0 .965.418.965 1.027 0 .742-.518 1.065-.998 1.065m.017-.273c.348 0 .61-.328.61-.78 0-.34-.17-.766-.602-.766-.426 0-.613.398-.613.775 0 .44.249.77.605.77m1.505-1.2c0-.21-.005-.376-.017-.542h.323l.021.331h.008a.74.74 0 0 1 .663-.373c.278 0 .709.166.709.854v1.193h-.365v-1.156c0-.323-.12-.592-.464-.592a.53.53 0 0 0-.489.373.5.5 0 0 0-.025.17v1.205h-.364zm-10.434-1.54h.364v2.943h-.364z"
    />
    <path
      fill="#182E66"
      d="m23.076 9.543-2.394 11.48h-2.896l2.394-11.48zm12.181 7.413 1.525-4.311.876 4.311zm3.232 4.067h2.678l-2.34-11.48h-2.47c-.556 0-1.025.331-1.233.842L30.78 21.023h3.042l.603-1.714h3.714zm-7.559-3.748c.013-3.03-4.083-3.197-4.056-4.551.01-.411.392-.85 1.228-.961.415-.055 1.559-.1 2.856.513l.507-2.435a7.6 7.6 0 0 0-2.708-.508c-2.863 0-4.876 1.56-4.893 3.795-.018 1.653 1.44 2.574 2.534 3.125 1.13.562 1.508.923 1.502 1.426-.007.77-.9 1.111-1.731 1.124-1.457.023-2.301-.404-2.974-.726l-.526 2.517c.678.318 1.927.595 3.22.61 3.042 0 5.033-1.542 5.041-3.929M18.938 9.543l-4.691 11.48h-3.06l-2.31-9.162c-.14-.563-.262-.77-.687-1.008-.697-.388-1.846-.751-2.857-.977l.069-.333h4.927c.628 0 1.192.428 1.336 1.17l1.22 6.644 3.011-7.814z"
    />
    <path fill="#FFF" d="M.667.667H.8V.8H.667z" />
    <path fill="#F1AD2B" d="M1.249 30.667h45.418v-4.176H1.249z" />
    <path fill="#182E66" d="M1.249 5.501h45.418V1.324H1.249z" />
    <path
      fill="#DDD"
      d="M44 1.333A2.667 2.667 0 0 1 46.667 4v24A2.667 2.667 0 0 1 44 30.667H4A2.667 2.667 0 0 1 1.333 28V4A2.667 2.667 0 0 1 4 1.333zM44 0H4a4 4 0 0 0-4 4v24a4 4 0 0 0 4 4h40a4 4 0 0 0 4-4V4a4 4 0 0 0-4-4"
    />
  </g>
</svg>
