<svg
  xmlns="http://www.w3.org/2000/svg"
  width="48"
  height="32"
  fill="none"
  viewBox="0 0 48 32"
>
  <rect width="47" height="31" x=".5" y=".5" fill="#fff" rx="3.5" />
  <rect width="47" height="31" x=".5" y=".5" stroke="#D0D1D3" rx="3.5" />
  <path fill="#7673C0" d="M28.367 8.15h-8.736v15.7h8.736z" />
  <path
    fill="#EB001B"
    d="M20.186 16.002a9.97 9.97 0 0 1 3.813-7.851 9.984 9.984 0 1 0 0 15.7 9.97 9.97 0 0 1-3.813-7.849"
  />
  <path
    fill="#00A1DF"
    d="M39.2 22.187v-.311h.13v-.067H39v.067h.13v.322zm.64 0v-.389h-.099l-.117.278-.116-.278h-.103v.389h.072v-.292l.109.253h.075l.108-.253v.294zM40.152 16.002a9.985 9.985 0 0 1-16.153 7.849 9.985 9.985 0 0 0 0-15.7 9.984 9.984 0 0 1 16.155 7.848z"
  />
</svg>
